PathFileType  4	(X/Y/Z) /Users/kristensteudel/Documents/NMBL_Research/BertecForceProcessing/anc_files/
DataRate	CameraRate	NumFrames	NumMarkers	Units	OrigDataRate	OrigDataStartFrame	OrigNumFrames
  200.0		  200.0		    10		     46		 mm	  200.0	      90	    718
Frame#	Time	r_knee			r_shank_antsup			r_ankle			r_calc			r_5meta			r_toe			L_knee			L_shank_antsup			L_ankle			L_calc			L_5meta			L_toe			r_sh2			r_sh3			r_sh4			L_sh2			L_sh3			r_thigh1			r_thigh2			r_thigh3			r_thigh4			r_thigh5			L_thigh1			L_thigh2			L_thigh3			L_thigh4			r.ASIS			r.PSIS			L.ASIS			L.PSIS			C7			R_Shoulder			L_Shoulder			Sternum			R_humerus			R_elbow_med			R_elbow_lat			R_forearm			R_wrist_radius			R_wrist_ulna			L_humerus			L_elbow_med			L_elbow_lat			L_forearm			L_wrist_radius			L_wrist_ulna			
		X1	Y1	Z1	X2	Y2	Z2	X3	Y3	Z3	X4	Y4	Z4	X5	Y5	Z5	X6	Y6	Z6	X7	Y7	Z7	X8	Y8	Z8	X9	Y9	Z9	X10	Y10	Z10	X11	Y11	Z11	X12	Y12	Z12	X13	Y13	Z13	X14	Y14	Z14	X15	Y15	Z15	X16	Y16	Z16	X17	Y17	Z17	X18	Y18	Z18	X19	Y19	Z19	X20	Y20	Z20	X21	Y21	Z21	X22	Y22	Z22	X23	Y23	Z23	X24	Y24	Z24	X25	Y25	Z25	X26	Y26	Z26	X27	Y27	Z27	X28	Y28	Z28	X29	Y29	Z29	X30	Y30	Z30	X31	Y31	Z31	X32	Y32	Z32	X33	Y33	Z33	X34	Y34	Z34	X35	Y35	Z35	X36	Y36	Z36	X37	Y37	Z37	X38	Y38	Z38	X39	Y39	Z39	X40	Y40	Z40	X41	Y41	Z41	X42	Y42	Z42	X43	Y43	Z43	X44	Y44	Z44	X45	Y45	Z45	X46	Y46	Z46	

90	0.44500	1019.424	515.593	-153.840	1046.793	391.172	-169.944	940.414	100.978	-250.523	869.283	73.284	-326.235	1039.252	33.057	-206.303	1094.208	49.743	-262.075	824.750	461.799	-459.020	714.548	460.100	-451.382	450.148	613.206	-399.600	458.058	676.216	-350.578	319.566	509.803	-404.872	326.724	472.965	-334.396	1019.867	278.768	-197.276	976.751	401.205	-146.521	940.134	298.591	-185.925	747.160	543.567	-465.045	633.596	579.036	-439.435	1004.817	747.968	-106.591	1043.866	643.188	-133.099	1014.176	594.724	-123.496	901.496	699.775	-96.162	949.400	599.231	-132.899	933.568	657.256	-458.704	915.468	517.903	-447.987	821.640	671.862	-497.380	807.224	539.992	-466.516	914.578	973.271	-159.346	712.355	1020.893	-247.493	921.236	956.640	-421.324	722.348	1018.575	-355.459	840.725	1503.469	-291.363	854.221	1465.321	-91.443	928.163	1476.438	-471.187	994.092	1396.325	-266.992	746.388	1258.613	-28.435	622.018	1181.869	-103.355	618.555	1208.923	-16.706	769.388	1117.321	-16.204	863.097	1054.401	-33.172	830.191	1018.949	-10.867	839.779	1251.966	-571.572	699.879	1177.162	-546.051	756.301	1206.818	-620.909	878.204	1103.590	-562.986	955.079	1078.179	-473.371	934.296	1026.924	-522.171
91	0.45000	1015.341	512.959	-157.292	1033.702	394.362	-174.568	912.569	102.890	-252.614	840.377	75.530	-328.057	1009.111	33.327	-207.767	1064.223	49.556	-263.229	842.297	459.955	-459.993	733.069	457.689	-453.040	468.407	610.033	-401.571	474.341	673.605	-352.523	339.618	505.132	-409.021	346.503	468.225	-337.874	1004.665	280.095	-198.029	963.407	404.226	-149.718	925.455	301.031	-185.759	765.271	541.584	-468.389	651.548	575.829	-440.961	1001.811	741.959	-103.493	1038.198	637.789	-134.088	1007.204	590.132	-126.299	896.590	697.097	-98.492	942.360	595.894	-136.270	943.179	659.866	-458.937	929.979	519.267	-449.278	830.074	670.324	-498.359	817.580	542.093	-471.829	911.795	971.189	-158.250	710.230	1019.461	-247.561	918.922	952.731	-420.704	720.226	1016.303	-355.349	840.344	1501.418	-290.408	856.737	1461.662	-89.012	925.617	1473.954	-472.264	994.815	1392.256	-268.297	753.479	1250.781	-26.338	628.662	1172.779	-98.450	627.398	1199.340	-11.295	780.227	1111.838	-15.227	874.523	1051.749	-34.443	843.665	1015.848	-11.494	834.107	1250.029	-570.428	693.305	1177.093	-544.100	749.446	1206.275	-619.599	870.331	1099.259	-565.274	948.112	1071.562	-477.248	924.988	1021.107	-526.456
92	0.45500	1009.556	510.668	-159.562	1019.194	393.663	-173.944	884.661	104.447	-253.396	811.578	78.349	-328.423	979.144	33.377	-208.696	1034.445	49.305	-263.944	860.528	459.553	-460.691	751.937	455.154	-454.385	485.696	606.331	-403.431	490.008	669.979	-353.125	359.552	498.287	-413.643	366.624	461.585	-341.461	987.145	280.352	-197.127	948.687	406.068	-151.454	908.568	302.872	-185.892	782.787	540.378	-471.600	669.351	574.262	-443.065	997.846	737.495	-103.200	1031.742	632.771	-137.142	1000.133	585.649	-129.945	891.396	694.496	-100.223	934.884	592.992	-139.098	952.185	663.502	-458.371	946.796	523.019	-448.925	839.288	669.199	-498.876	827.919	545.876	-477.837	910.156	970.042	-157.184	708.974	1019.281	-247.490	917.303	949.532	-418.621	717.728	1015.047	-355.188	840.423	1500.078	-288.785	859.317	1458.297	-86.544	924.027	1471.559	-472.494	995.412	1388.648	-269.741	761.030	1243.478	-24.566	635.756	1164.032	-93.470	636.669	1190.147	-6.033	791.470	1106.841	-14.456	886.280	1049.750	-35.678	857.015	1012.812	-12.151	828.363	1248.715	-569.556	687.742	1177.501	-542.104	741.527	1206.476	-618.960	862.564	1096.006	-567.634	941.260	1065.991	-481.186	914.834	1015.468	-530.095
93	0.46000	1002.071	508.538	-161.468	1003.868	388.762	-171.438	856.310	105.913	-253.595	782.436	80.912	-327.318	949.140	33.427	-208.670	1004.234	48.955	-263.972	879.560	460.901	-461.188	771.459	454.052	-455.245	502.156	601.009	-405.330	503.877	664.429	-354.441	379.963	489.288	-417.270	387.086	453.115	-344.357	966.784	278.323	-196.422	934.360	405.780	-151.804	889.181	304.685	-186.308	800.703	539.369	-474.421	686.175	570.646	-445.580	992.584	733.413	-105.070	1025.396	628.555	-139.597	993.312	582.174	-132.623	885.975	692.183	-101.766	927.482	589.449	-140.965	961.336	668.519	-457.393	963.562	528.649	-448.288	849.228	669.213	-499.464	838.895	550.599	-483.666	909.024	969.050	-155.995	707.690	1019.445	-246.823	914.297	945.826	-419.172	714.822	1014.955	-354.967	840.535	1499.585	-287.333	862.497	1455.648	-84.640	922.401	1469.540	-472.943	995.764	1385.516	-271.358	769.116	1237.390	-23.226	642.961	1155.883	-88.853	646.269	1181.637	-1.333	803.065	1102.651	-13.854	898.226	1048.564	-37.097	870.769	1010.679	-13.105	822.294	1248.181	-569.025	681.102	1178.084	-540.473	734.163	1206.960	-617.613	853.925	1093.713	-569.449	934.104	1061.413	-485.201	905.688	1012.203	-534.169
94	0.46500	992.438	505.800	-162.676	987.883	384.101	-172.157	827.797	107.228	-252.624	752.708	83.467	-326.049	918.772	33.456	-207.552	974.284	48.700	-263.563	899.046	463.631	-461.247	790.646	453.814	-456.112	517.923	594.420	-407.073	516.487	658.060	-356.343	401.629	476.349	-417.061	407.619	441.904	-348.680	944.946	275.388	-197.515	919.539	403.532	-149.602	869.006	305.851	-185.805	818.236	539.203	-476.250	703.038	568.609	-448.225	987.263	730.482	-107.975	1018.442	624.486	-141.309	985.929	578.480	-134.153	880.186	689.804	-102.713	920.123	586.377	-141.592	970.119	674.427	-455.978	979.247	534.935	-447.036	859.457	670.178	-500.617	851.162	555.521	-488.440	909.704	968.795	-155.368	706.462	1019.583	-246.219	912.379	942.868	-418.618	711.943	1015.404	-354.435	841.685	1499.085	-286.225	865.991	1453.757	-83.469	920.541	1467.840	-473.564	995.959	1383.043	-273.197	777.273	1232.841	-22.028	650.146	1148.548	-84.554	656.208	1174.315	2.997	814.687	1099.050	-13.463	910.329	1048.188	-38.956	884.432	1009.339	-14.406	815.881	1248.358	-568.855	674.411	1179.287	-538.816	726.179	1208.100	-616.621	845.429	1092.528	-571.366	926.625	1057.917	-488.865	896.423	1010.107	-537.999
95	0.47000	980.369	501.448	-162.398	970.957	378.771	-173.421	799.177	109.117	-251.021	722.845	86.409	-323.840	888.179	33.085	-206.750	943.772	48.505	-262.499	918.500	467.542	-460.994	810.061	453.587	-456.584	534.689	586.258	-409.292	527.967	651.131	-359.055	422.575	463.758	-420.870	429.057	429.381	-352.101	923.087	272.011	-198.459	904.243	400.029	-147.750	848.771	306.315	-185.516	835.475	539.594	-476.826	719.231	566.669	-451.422	981.463	726.571	-109.933	1010.786	619.792	-141.948	977.113	574.100	-134.175	874.008	688.113	-103.355	911.620	583.526	-141.543	978.954	681.722	-454.582	994.915	542.827	-445.795	869.758	672.021	-500.429	865.373	559.899	-491.284	910.545	968.610	-155.057	705.001	1019.846	-245.969	910.921	940.549	-418.123	710.388	1014.470	-352.890	842.495	1498.832	-286.558	870.331	1452.345	-82.704	918.373	1466.383	-474.344	995.889	1381.356	-275.286	785.805	1229.905	-21.111	658.267	1142.409	-80.285	666.375	1168.119	6.995	826.555	1096.436	-13.316	922.359	1048.877	-41.053	898.284	1007.505	-18.266	809.071	1249.117	-568.991	668.206	1180.756	-536.886	718.299	1209.954	-615.345	836.661	1092.371	-573.162	918.746	1055.563	-492.346	887.152	1008.613	-542.117
96	0.47500	966.500	496.514	-162.259	953.488	372.258	-173.052	770.409	111.228	-249.209	692.947	90.223	-321.836	857.442	32.992	-205.945	912.892	48.246	-261.665	937.717	472.464	-460.550	829.341	454.439	-456.524	548.019	577.489	-411.103	538.201	642.203	-360.360	443.532	449.044	-424.876	451.193	415.202	-355.437	900.708	268.275	-198.080	888.106	397.280	-147.554	827.992	305.893	-184.833	852.436	540.771	-476.827	734.597	564.252	-453.780	975.404	722.290	-111.091	1001.787	614.623	-142.651	967.005	570.034	-134.253	866.991	686.667	-103.449	901.818	580.832	-140.862	987.599	689.994	-453.120	1010.554	552.259	-444.274	879.384	674.684	-501.000	882.182	562.991	-491.324	911.067	968.288	-154.925	704.248	1020.345	-245.660	909.707	938.950	-417.887	708.628	1014.776	-351.479	843.993	1500.153	-286.605	874.955	1451.729	-82.115	916.379	1465.590	-475.003	995.667	1380.328	-277.427	793.952	1228.103	-20.541	666.331	1137.130	-76.320	676.465	1163.347	10.465	838.377	1094.767	-14.030	934.506	1051.009	-44.166	912.022	1008.160	-20.596	802.037	1250.431	-569.279	661.257	1183.161	-535.298	710.215	1212.580	-614.182	827.803	1093.233	-574.777	910.939	1054.473	-495.293	878.536	1009.458	-545.181
97	0.48000	951.376	490.846	-162.062	934.643	366.082	-173.305	741.458	113.918	-247.729	663.146	95.173	-320.331	826.130	32.939	-205.365	881.398	47.728	-261.595	956.339	478.542	-459.903	848.757	456.494	-455.914	561.285	567.635	-412.606	546.723	630.757	-362.643	466.233	434.322	-428.593	474.105	399.078	-359.383	877.459	265.143	-198.196	870.565	395.077	-148.851	806.624	305.325	-184.039	868.671	542.914	-476.397	749.278	561.882	-455.433	968.988	717.805	-112.057	991.668	609.084	-143.335	955.487	565.658	-134.298	859.738	685.765	-103.040	890.840	578.633	-140.105	995.686	699.187	-451.662	1025.106	562.537	-442.678	890.188	678.927	-501.279	902.242	564.055	-487.683	911.376	967.884	-154.955	703.583	1021.154	-245.350	908.789	938.121	-418.257	706.965	1014.679	-350.832	844.058	1500.627	-287.322	880.050	1451.791	-82.349	913.709	1465.414	-475.728	995.208	1380.021	-279.580	802.130	1227.370	-19.999	674.799	1133.094	-73.021	686.446	1159.707	13.639	850.076	1094.283	-14.553	946.270	1053.362	-46.554	925.560	1009.991	-22.957	795.105	1252.466	-569.603	654.419	1186.322	-533.733	702.208	1216.346	-613.173	819.036	1094.956	-576.210	902.824	1054.646	-498.073	869.234	1010.239	-547.424
98	0.48500	935.216	484.916	-161.941	915.205	361.441	-174.811	712.252	117.090	-246.505	633.361	101.005	-318.458	794.559	32.900	-205.058	850.068	47.583	-260.859	974.672	486.301	-458.787	868.050	458.908	-455.018	574.241	556.474	-413.897	555.197	618.326	-363.693	489.055	417.217	-431.738	498.211	382.753	-361.678	854.340	261.869	-198.060	852.282	391.728	-148.543	785.212	304.469	-183.143	883.787	546.012	-476.141	763.958	559.982	-455.475	962.799	712.871	-112.243	981.111	603.191	-143.271	943.228	561.284	-133.689	852.214	684.928	-102.887	879.242	576.865	-139.279	1003.148	709.168	-450.450	1039.204	574.147	-441.235	899.951	683.383	-501.579	926.207	562.348	-479.488	911.577	967.450	-155.130	703.249	1022.327	-244.792	907.843	937.981	-419.313	706.024	1015.184	-349.547	844.222	1501.963	-286.457	885.048	1452.600	-83.119	910.836	1465.963	-476.291	994.658	1380.346	-281.732	810.270	1227.239	-19.687	683.144	1130.494	-70.064	696.269	1157.054	16.735	861.446	1094.979	-15.270	957.704	1056.864	-49.240	938.712	1012.938	-25.657	788.140	1255.283	-569.751	647.330	1190.167	-532.325	693.996	1220.410	-612.195	810.355	1097.537	-577.471	895.331	1056.143	-500.524	860.208	1012.385	-549.641
99	0.49000	918.378	479.385	-161.556	895.502	356.707	-175.090	683.489	120.816	-245.049	603.751	107.705	-317.194	762.610	32.889	-205.217	818.285	47.517	-260.513	991.960	495.148	-457.760	886.730	462.305	-454.474	587.270	544.000	-415.076	563.507	604.359	-364.651	512.503	399.238	-434.509	523.057	365.055	-363.729	830.763	259.171	-198.806	833.853	388.230	-146.899	763.390	304.130	-182.749	898.724	549.248	-476.308	778.108	557.390	-454.962	956.353	708.155	-112.249	969.968	597.497	-142.598	930.368	557.285	-133.095	845.030	684.406	-102.396	867.164	575.251	-138.601	1010.764	719.946	-449.152	1052.433	586.568	-440.118	908.692	689.559	-501.135	950.804	560.683	-469.514	911.776	967.042	-155.435	703.337	1023.305	-244.058	906.271	938.455	-421.063	704.947	1016.395	-348.882	844.281	1502.896	-285.524	889.773	1454.189	-84.496	907.324	1467.206	-476.909	994.002	1381.217	-283.995	817.935	1227.591	-19.224	691.557	1128.740	-67.428	705.769	1155.385	19.461	872.305	1096.877	-16.215	968.744	1061.549	-52.016	951.412	1017.334	-28.383	781.060	1258.791	-570.089	640.429	1194.570	-530.749	686.152	1225.181	-610.939	801.847	1101.104	-578.371	885.679	1058.389	-502.215	850.881	1014.785	-551.330
